<svg xmlns="http://www.w3.org/2000/svg" width="140" height="32" fill="none"><path fill="#4A5D69" d="M30.438 11c.398 0 .53.142.53.525v8.66h4.501c.387 0 .531.142.531.525v.765c0 .383-.144.525-.53.525h-5.928c-.387 0-.542-.142-.542-.525v-9.95c0-.383.155-.525.542-.525h.896ZM40 14.884C40 12.459 41.642 11 44.5 11s4.5 1.459 4.5 3.884v3.232C49 20.541 47.346 22 44.5 22S40 20.541 40 18.116v-3.232Zm7.11 0c0-1.365-.911-2.1-2.554-2.1-1.642 0-2.542.746-2.542 2.1v3.253c0 1.375.9 2.1 2.542 2.1 1.643 0 2.554-.756 2.554-2.1v-3.253ZM62.463 15.491c.436 0 .536.15.536.55v2.173a3.505 3.505 0 0 1-.293 1.488 3.425 3.425 0 0 1-.89 1.212 4.79 4.79 0 0 1-3.35 1.075C55.574 21.99 54 20.4 54 17.756V14.21c0-2.608 1.63-4.21 4.466-4.21 2.233 0 3.684.904 4.299 2.711a.502.502 0 0 1-.134.617.475.475 0 0 1-.201.093l-.871.309c-.38.137-.536.057-.67-.344a2.343 2.343 0 0 0-.963-1.17 2.254 2.254 0 0 0-1.46-.317c-1.641 0-2.534.812-2.534 2.288v3.638c0 1.499.904 2.288 2.534 2.288s2.635-.766 2.635-1.887v-.847h-2.423c-.402 0-.547-.16-.547-.56v-.778c0-.4.145-.55.547-.55h3.785ZM68 14.884C68 12.459 69.642 11 72.5 11s4.5 1.459 4.5 3.884v3.232C77 20.541 75.346 22 72.5 22S68 20.541 68 18.116v-3.232Zm7.099 0c0-1.365-.912-2.1-2.543-2.1-1.631 0-2.553.746-2.553 2.1v3.253c0 1.375.91 2.1 2.553 2.1 1.643 0 2.543-.756 2.543-2.1v-3.253ZM82 11.317c0-.24.069-.317.284-.317h.451c.216 0 .265.076.265.317v10.366c0 .24 0 .317-.265.317h-.45c-.216 0-.285-.076-.285-.317V11.317ZM93.492 11c.93 0 1.822.362 2.48 1.006A3.396 3.396 0 0 1 97 14.433c0 .911-.37 1.784-1.028 2.428a3.547 3.547 0 0 1-2.48 1.006H90.14v3.816c0 .24-.056.317-.29.317h-.526c-.235 0-.324-.076-.324-.317V11.317c0-.24.09-.317.324-.317h4.168Zm-.1 5.784c.319 0 .636-.061.931-.181.296-.12.564-.296.79-.517a2.38 2.38 0 0 0 .528-.773 2.34 2.34 0 0 0-.528-2.598 2.44 2.44 0 0 0-.79-.517 2.484 2.484 0 0 0-.932-.181H90.04v4.767h3.352ZM106.469 11.023a4.605 4.605 0 0 1 2.586.494c.781.41 1.393 1.035 1.746 1.782.093.167 0 .303-.187.386l-.512.21c-.21.072-.291.062-.419-.137a2.966 2.966 0 0 0-1.295-1.326 3.468 3.468 0 0 0-1.919-.386c-1.968 0-3.039.7-3.039 1.953-.012.382.132.756.404 1.052a1.82 1.82 0 0 0 1.075.555 8.71 8.71 0 0 0 1.933.335c.795.038 1.58.182 2.328.428a2.605 2.605 0 0 1 1.398.948c.331.45.479.99.419 1.526 0 1.953-1.584 3.133-4.495 3.133a4.592 4.592 0 0 1-2.729-.563c-.812-.461-1.422-1.158-1.73-1.975a.255.255 0 0 1-.006-.24.29.29 0 0 1 .082-.099.335.335 0 0 1 .122-.057l.512-.168a.346.346 0 0 1 .253.007.31.31 0 0 1 .103.07c.029.03.05.064.063.101a3.09 3.09 0 0 0 1.323 1.428 3.63 3.63 0 0 0 2.007.451c2.201 0 3.284-.689 3.284-2.088.02-.368-.105-.73-.355-1.023a1.765 1.765 0 0 0-1.007-.574 9.008 9.008 0 0 0-1.852-.293l-1.257-.146a12.053 12.053 0 0 1-1.165-.282 3.199 3.199 0 0 1-1.036-.49 2.57 2.57 0 0 1-.714-.905 2.32 2.32 0 0 1-.218-1.09c.082-1.827 1.607-3.017 4.297-3.017ZM116.217 18.112c.05.757.417 1.469 1.026 1.99.609.52 1.414.81 2.251.81s1.642-.29 2.251-.81c.609-.521.976-1.233 1.027-1.99v-6.801c0-.236.082-.311.342-.311h.543c.26 0 .343.075.343.31v6.791c0 2.432-1.583 3.899-4.5 3.899s-4.5-1.467-4.5-3.899v-6.79c0-.236.083-.311.331-.311h.555c.248 0 .331.075.331.31v6.802ZM139.682 11.002c.241 0 .318.076.318.317v10.364c0 .24-.077.317-.318.317h-.461c-.23 0-.307-.076-.307-.317v-6.308c0-.918.063-1.835.187-2.744h-.066a19.608 19.608 0 0 1-1.195 2.416l-2.358 4.143a.385.385 0 0 1-.361.24h-.307a.409.409 0 0 1-.373-.24l-2.391-4.187a17.55 17.55 0 0 1-1.096-2.383h-.066a23.9 23.9 0 0 1 .176 2.766v6.297c0 .24-.077.317-.318.317h-.428c-.241 0-.318-.076-.318-.317V11.319c0-.24.077-.317.318-.317h.395a.438.438 0 0 1 .438.251l3.838 6.8 3.816-6.734c.12-.23.186-.263.427-.263l.45-.054ZM10.259 19.982v8.12c0 .312-.13.61-.36.83-.23.22-.542.344-.868.344-.326 0-.638-.123-.869-.343-.23-.22-.36-.52-.36-.83v-8.11a2.144 2.144 0 0 0 2.457-.011Zm10.458-2.348c-.311 0-.61.119-.83.33-.22.21-.345.496-.345.794v1.415c0 .311.13.61.36.83.23.22.543.343.868.343.326 0 .638-.123.869-.343.23-.22.36-.519.36-.83v-1.36a1.08 1.08 0 0 0-.08-.472 1.12 1.12 0 0 0-.279-.397 1.186 1.186 0 0 0-.426-.251 1.226 1.226 0 0 0-.497-.059ZM5.135 23.06a2.18 2.18 0 0 1-1.175-.382v8.144c0 .312.13.612.362.834.23.22.545.345.872.345.327 0 .641-.124.873-.345.23-.222.36-.522.36-.834v-8.087a2.226 2.226 0 0 1-1.292.325Zm11.752-7.862a1.226 1.226 0 0 0-.468.069c-.15.053-.286.134-.402.24a1.123 1.123 0 0 0-.27.37 1.08 1.08 0 0 0-.094.444v6.256c0 .313.13.613.361.834.231.221.545.346.873.346.327 0 .64-.125.872-.346.231-.22.361-.52.361-.834V16.4a1.08 1.08 0 0 0-.08-.475 1.122 1.122 0 0 0-.282-.4 1.185 1.185 0 0 0-.43-.25 1.225 1.225 0 0 0-.5-.055l.059-.022ZM12.985 17.6a2.219 2.219 0 0 1-1.234-.382v8.165c0 .313.13.613.362.834.231.221.545.346.872.346.327 0 .641-.125.873-.346.231-.22.361-.52.361-.834V17.23a2.146 2.146 0 0 1-1.293.393l.06-.022ZM2.468 23.857V1.045a1.033 1.033 0 0 0-.328-.74A1.131 1.131 0 0 0 1.363 0h-.258C.814 0 .535.11.328.305a1.033 1.033 0 0 0-.328.74v22.812c0 .28.116.548.324.746.207.198.488.31.78.31h.26c.292 0 .573-.112.78-.31.207-.198.324-.466.324-.746Zm2.797-1.662h-.259c-.293 0-.574-.112-.781-.31a1.033 1.033 0 0 1-.324-.746V3.763c.004-.278.121-.544.328-.74.207-.195.486-.305.777-.305h.259c.29 0 .57.11.777.305.206.196.324.462.327.74V21.16c0 .28-.116.549-.323.747-.208.198-.488.309-.781.309v-.022Zm3.89-2.674h-.271c-.29 0-.568-.11-.773-.306a1.022 1.022 0 0 1-.32-.738V6.458a1.004 1.004 0 0 1 .08-.403c.054-.128.134-.244.236-.342.102-.099.223-.177.356-.23.133-.053.276-.08.42-.08h.271c.291.003.57.115.774.313.204.197.32.464.32.742v12.019c0 .277-.116.542-.321.738a1.119 1.119 0 0 1-.773.306Zm3.889-2.752h-.247c-.29 0-.57-.11-.777-.305a1.033 1.033 0 0 1-.327-.74V9.256c-.01-.144.011-.289.062-.425.052-.136.131-.26.235-.365.104-.106.229-.19.367-.247.14-.057.289-.086.44-.086h.259c.293 0 .574.111.78.31.208.197.324.466.324.746v6.514c.002.14-.026.278-.08.408-.055.13-.136.247-.24.346-.102.1-.224.178-.359.232a1.15 1.15 0 0 1-.425.081h-.012Zm3.901-2.414h-.258c-.293 0-.574-.112-.781-.31a1.033 1.033 0 0 1-.324-.746v-1.674c.003-.278.12-.544.328-.74a1.13 1.13 0 0 1 .777-.304h.258c.291 0 .57.11.777.305.207.195.325.461.328.74v1.673c0 .278-.115.545-.32.742a1.13 1.13 0 0 1-.773.313h-.012Z"/><path fill="#4A5D69" d="M5 30h1v1H5z"/></svg>