<svg xmlns="http://www.w3.org/2000/svg" width="143" height="33" fill="none"><path fill="#4A5D69" d="M41 10.01h3.609v14.738H41V10.01Zm5.048 9.194c0-3.65 2.248-5.839 5.621-5.839s5.621 2.188 5.621 5.84c0 3.65-2.17 5.86-5.621 5.86-3.451 0-5.621-2.13-5.621-5.86Zm7.667 0c0-2.007-.776-3.186-2.012-3.186-1.237 0-2.001 1.134-2.001 3.186s.764 3.175 2 3.175c1.237 0 2.035-1.123 2.035-3.164l-.022-.01Zm5.014 6.304h3.485c.159.378.436.694.79.899.352.204.762.287 1.166.235 1.383 0 2.103-.749 2.103-1.86v-2.04h.011a3.47 3.47 0 0 1-1.381 1.519 3.428 3.428 0 0 1-1.992.465c-2.642 0-4.395-2.03-4.395-5.522 0-3.492 1.675-5.669 4.496-5.669a3.43 3.43 0 0 1 2.025.53 3.473 3.473 0 0 1 1.348 1.613h-.101v-2.052h3.575v11.043c0 2.664-2.338 4.331-5.778 4.331-3.126-.011-5.127-1.451-5.33-3.48l-.022-.012Zm7.555-6.304c0-1.78-.81-2.902-2.091-2.902-1.282 0-2.069 1.133-2.069 2.902 0 1.769.776 2.812 2.069 2.812s2.091-.964 2.091-2.812Zm5.003 0c0-3.65 2.248-5.839 5.62-5.839 3.374 0 5.622 2.188 5.622 5.84 0 3.65-2.18 5.86-5.621 5.86-3.44 0-5.599-2.13-5.599-5.86h-.022Zm7.667 0c0-2.007-.787-3.186-2.012-3.186-1.226 0-2.001 1.134-2.001 3.186s.764 3.175 2 3.175c1.237 0 2.035-1.123 2.035-3.164l-.022-.01Zm5.037-8.265c-.016-.371.079-.738.271-1.054a1.83 1.83 0 0 1 2.845-.369 1.865 1.865 0 0 1 .437 2.035c-.137.345-.373.64-.678.848-.304.208-.664.32-1.032.32a1.763 1.763 0 0 1-1.277-.5 1.793 1.793 0 0 1-.544-1.269l-.022-.011Zm0 2.675h3.653v11.18h-3.597l-.056-11.18Zm16.796 5.59c0 3.64-1.62 5.748-4.374 5.748a3.43 3.43 0 0 1-2.01-.502 3.473 3.473 0 0 1-1.362-1.572h-.068v5.51h-3.609v-14.74h3.587v1.996h.067a3.496 3.496 0 0 1 1.35-1.614 3.452 3.452 0 0 1 2.023-.54c2.833-.023 4.463 2.075 4.463 5.725l-.067-.01Zm-3.677 0c0-1.769-.82-2.914-2.09-2.914-1.271 0-2.07 1.134-2.08 2.914-.012 1.78.809 2.903 2.08 2.903 1.27 0 2.158-1.055 2.158-2.892l-.068-.01Zm9.837-5.85c3.025 0 4.902 1.44 4.925 3.753h-3.294c0-.805-.664-1.304-1.653-1.304s-1.462.385-1.462.963c0 .579.416.76 1.248.93l2.316.476c2.249.476 3.148 1.384 3.148 3.073 0 2.267-2.08 3.81-5.171 3.81-3.092 0-5.104-1.497-5.251-3.776h3.497c.101.828.753 1.315 1.81 1.315s1.551-.34 1.551-.94c0-.602-.337-.704-1.203-.885l-2.091-.442c-2.169-.465-3.305-1.61-3.305-3.323.067-2.222 1.956-3.639 5.003-3.639l-.068-.011Zm17.314 11.428h-3.497v-2.097h-.067a3.197 3.197 0 0 1-1.209 1.733 3.15 3.15 0 0 1-2.018.591 3.826 3.826 0 0 1-1.587-.288 3.86 3.86 0 0 1-1.332-.918 3.893 3.893 0 0 1-1.049-3v-7.177h3.608v6.394c0 1.316.686 2.03 1.81 2.03a1.837 1.837 0 0 0 1.387-.65 1.857 1.857 0 0 0 .423-1.482v-6.292h3.598l-.067 11.156Zm1.742-11.168h3.508v2.155h.078a3.242 3.242 0 0 1 1.181-1.723 3.198 3.198 0 0 1 1.979-.636 2.86 2.86 0 0 1 1.994.584c.57.438.957 1.075 1.086 1.786h.157a3.4 3.4 0 0 1 1.287-1.763 3.353 3.353 0 0 1 2.086-.607 3.486 3.486 0 0 1 2.658 1.08 3.545 3.545 0 0 1 .973 2.719v7.585h-3.631v-6.656c0-1.134-.528-1.768-1.551-1.768a1.565 1.565 0 0 0-1.204.534 1.599 1.599 0 0 0-.382 1.268v6.622h-3.44v-6.69c0-1.133-.551-1.734-1.54-1.734a1.6 1.6 0 0 0-1.215.544 1.633 1.633 0 0 0-.393 1.281v6.599h-3.608l-.023-11.18ZM34 11.038c0-2.224-.69-4.395-1.978-6.23A11.288 11.288 0 0 0 26.778.751a11.62 11.62 0 0 0-6.68-.465 11.402 11.402 0 0 0-5.782 3.288H0V33h30.226V19.248a11.047 11.047 0 0 0 2.786-3.713c.65-1.415.987-2.947.988-4.497Zm-5.816 0a5.285 5.285 0 0 1-.926 2.994 5.5 5.5 0 0 1-2.479 1.988 5.667 5.667 0 0 1-3.195.311 5.577 5.577 0 0 1-2.834-1.47 5.342 5.342 0 0 1-1.517-2.758 5.253 5.253 0 0 1 .313-3.112 5.418 5.418 0 0 1 2.036-2.418 5.635 5.635 0 0 1 3.073-.909c1.465 0 2.87.566 3.906 1.573a5.315 5.315 0 0 1 1.623 3.8ZM24.41 27.336H5.816V9.24h5.667a10.39 10.39 0 0 0-.173 1.799c.003 2.929 1.2 5.737 3.327 7.809 2.127 2.07 5.01 3.236 8.018 3.239a11.386 11.386 0 0 0 1.755-.145v5.395Z"/><path fill="#4A5D69" d="M29 31h1v1h-1z"/></svg>