<svg xmlns="http://www.w3.org/2000/svg" width="134" height="31" fill="none"><path fill="#4A5D69" d="M39 8.9h3.378v13.313H39V8.9Zm4.718 8.286c0-3.292 2.071-5.257 5.269-5.257 3.197 0 5.269 1.965 5.269 5.257 0 3.293-2.027 5.269-5.27 5.269-3.242 0-5.268-1.921-5.268-5.269Zm7.149 0c0-1.81-.732-2.875-1.88-2.875-1.149 0-1.87 1.097-1.87 2.875 0 1.779.71 2.854 1.87 2.854 1.16 0 1.88-1.01 1.88-2.843v-.01Zm4.661 5.675h3.243c.154.334.415.61.743.789.33.178.708.248 1.08.199 1.284 0 1.96-.68 1.96-1.669v-1.843h-.068a3.146 3.146 0 0 1-1.254 1.359 3.262 3.262 0 0 1-1.82.44c-2.465 0-4.098-1.832-4.098-4.982 0-3.15 1.554-5.137 4.143-5.137a3.294 3.294 0 0 1 1.864.492c.556.345.99.847 1.244 1.44v-1.833h3.377v9.988c0 2.403-2.172 3.896-5.381 3.896-2.984 0-4.842-1.306-5.033-3.128v-.011Zm7.037-5.686c0-1.602-.755-2.612-1.948-2.612s-1.925.999-1.925 2.612c0 1.614.72 2.525 1.925 2.525s1.948-.89 1.948-2.514v-.01Zm4.65 0c0-3.292 2.071-5.257 5.269-5.257s5.28 1.965 5.28 5.257c0 3.293-2.026 5.269-5.28 5.269-3.254 0-5.27-1.91-5.27-5.258v-.01Zm7.15 0c0-1.81-.733-2.875-1.881-2.875-1.148 0-1.813 1.108-1.813 2.897 0 1.79.71 2.854 1.858 2.854 1.148 0 1.835-1.02 1.835-2.854v-.022Zm4.683-7.452c-.009-.333.084-.66.266-.941a1.71 1.71 0 0 1 .758-.638 1.763 1.763 0 0 1 1.888.32c.246.23.418.527.492.851a1.64 1.64 0 0 1-.077.974c-.124.31-.339.577-.619.767-.28.19-.61.296-.952.302a1.684 1.684 0 0 1-1.24-.432 1.602 1.602 0 0 1-.384-.538 1.567 1.567 0 0 1-.132-.643v-.022Zm0 2.414h3.378v10.076h-3.378V12.137Zm15.638 5.038c0 3.293-1.497 5.17-4.064 5.17a3.287 3.287 0 0 1-1.877-.45 3.166 3.166 0 0 1-1.276-1.416h-.067v4.961h-3.378V12.116h3.378v1.8h.067a3.172 3.172 0 0 1 1.251-1.453 3.294 3.294 0 0 1 1.88-.49c2.59.044 4.132 1.932 4.132 5.224l-.046-.022Zm-3.377 0c0-1.602-.754-2.623-1.937-2.623-1.182 0-1.936 1.032-1.948 2.623-.01 1.592.766 2.613 1.948 2.613 1.183 0 1.937-1 1.937-2.59v-.023Zm9.176-5.268c2.803 0 4.503 1.295 4.582 3.37h-3.073c0-.714-.608-1.164-1.543-1.164-.934 0-1.351.351-1.351.867s.372.68 1.126.834l2.162.428c2.06.429 2.938 1.24 2.938 2.766 0 2.086-1.948 3.425-4.819 3.425-2.87 0-4.75-1.34-4.897-3.392h3.254c.1.747.709 1.186 1.7 1.186.99 0 1.441-.319 1.441-.845 0-.527-.315-.637-1.126-.802l-1.948-.406c-2.015-.406-3.074-1.449-3.074-2.985.023-1.976 1.836-3.26 4.628-3.26v-.022Zm16.111 10.284h-3.254v-1.877h-.067a2.865 2.865 0 0 1-1.118 1.564 2.994 2.994 0 0 1-1.877.533 3.677 3.677 0 0 1-1.506-.233 3.602 3.602 0 0 1-1.271-.82 3.489 3.489 0 0 1-.807-1.26 3.41 3.41 0 0 1-.199-1.474v-6.508h3.378v5.75c0 1.197.63 1.834 1.677 1.834a1.755 1.755 0 0 0 1.298-.571 1.663 1.663 0 0 0 .414-1.328v-5.685h3.377l-.045 10.075Zm1.633-10.075h3.265v1.942h.067a2.923 2.923 0 0 1 1.097-1.553 3.05 3.05 0 0 1 1.842-.576 2.74 2.74 0 0 1 1.876.55c.532.408.887.995.995 1.645h.068a3.098 3.098 0 0 1 1.202-1.627 3.232 3.232 0 0 1 1.973-.568 3.35 3.35 0 0 1 1.342.233c.426.168.811.422 1.129.745.319.323.564.708.72 1.13.156.42.22.87.186 1.316v6.86h-3.377v-5.982c0-1.097-.507-1.602-1.453-1.602a1.506 1.506 0 0 0-1.117.485 1.426 1.426 0 0 0-.358 1.14v5.96h-3.208v-6.026c0-1.01-.507-1.559-1.43-1.559a1.517 1.517 0 0 0-1.129.495 1.437 1.437 0 0 0-.369 1.151v5.938h-3.377l.056-10.097ZM28.762 9.363a15.236 15.236 0 0 0-2.212-3.68 15.06 15.06 0 0 0-4.894-4.049 14.528 14.528 0 0 0-12.247-.53 14.943 14.943 0 0 0-5.203 3.611 15.552 15.552 0 0 0-3.317 5.498 15.946 15.946 0 0 0 .925 12.633 15.338 15.338 0 0 0 4.079 4.92c1.078.866 2.27 1.57 3.539 2.091A14.389 14.389 0 0 0 15.038 31c3.97-.01 7.773-1.645 10.578-4.548 2.805-2.903 4.381-6.837 4.384-10.94a15.747 15.747 0 0 0-1.238-6.15ZM15.027 3.156c1.727 0 3.433.39 4.998 1.143-.381.17-.783.29-1.194.354a6.263 6.263 0 0 0-3.573 1.851 6.633 6.633 0 0 0-1.79 3.693 3.474 3.474 0 0 1-.977 2.066 3.272 3.272 0 0 1-2.02.963 6.263 6.263 0 0 0-3.573 1.85 6.633 6.633 0 0 0-1.79 3.694 3.378 3.378 0 0 1-.874 1.989A12.704 12.704 0 0 1 4.941 8.87a12.115 12.115 0 0 1 4.335-4.21 11.638 11.638 0 0 1 5.762-1.528l-.011.023ZM5.882 23.513c.133-.126.265-.24.398-.377a6.343 6.343 0 0 0 1.791-3.692c.072-.79.413-1.527.962-2.08a3.09 3.09 0 0 1 2.002-.983 6.263 6.263 0 0 0 3.573-1.85 6.634 6.634 0 0 0 1.79-3.694c.048-.826.391-1.604.962-2.183a3.129 3.129 0 0 1 2.024-.949 5.98 5.98 0 0 0 3.317-1.634 11.921 11.921 0 0 1 2.61 3.177.976.976 0 0 1-.143.16 3.134 3.134 0 0 1-2.002 1.006 6.24 6.24 0 0 0-3.577 1.847 6.61 6.61 0 0 0-1.786 3.697 3.478 3.478 0 0 1-.96 2.08 3.274 3.274 0 0 1-2.015.983 6.295 6.295 0 0 0-3.587 1.848 6.665 6.665 0 0 0-1.81 3.696 3.667 3.667 0 0 1-.541 1.566 12.148 12.148 0 0 1-3.008-2.618Zm9.145 4.412a11.628 11.628 0 0 1-3.317-.48c.368-.71.608-1.486.707-2.286a3.478 3.478 0 0 1 .955-2.076 3.274 3.274 0 0 1 2.009-.987 6.262 6.262 0 0 0 3.58-1.848 6.632 6.632 0 0 0 1.794-3.696 3.478 3.478 0 0 1 .955-2.076 3.274 3.274 0 0 1 2.009-.987 6.196 6.196 0 0 0 2.83-1.143 12.77 12.77 0 0 1 .162 5.59 12.565 12.565 0 0 1-2.238 5.093 12.06 12.06 0 0 1-4.18 3.553 11.647 11.647 0 0 1-5.266 1.286v.057Z"/><path fill="#4A5D69" d="M18 29h1v1h-1z"/></svg>